<svg width="55" height="55" viewBox="0 0 55 55" fill="none" xmlns="http://www.w3.org/2000/svg">
<g clip-path="url(#clip0_431_12799)">
<path d="M27.5 55C42.6878 55 55 42.6878 55 27.5C55 12.3122 42.6878 0 27.5 0C12.3122 0 0 12.3122 0 27.5C0 42.6878 12.3122 55 27.5 55Z" fill="#F0F0F0"/>
<path d="M5.68477 10.7574C3.52462 13.5679 1.89578 16.8072 0.947353 20.3263H15.2536L5.68477 10.7574Z" fill="#41479B"/>
<path d="M54.0526 20.3263C53.1042 16.8073 51.4753 13.568 49.3152 10.7575L39.7466 20.3263H54.0526Z" fill="#41479B"/>
<path d="M0.947353 34.6741C1.89589 38.193 3.52473 41.4323 5.68477 44.2427L15.2533 34.6741H0.947353Z" fill="#41479B"/>
<path d="M44.2426 5.68487C41.4321 3.52473 38.1929 1.89589 34.6738 0.947353V15.2535L44.2426 5.68487Z" fill="#41479B"/>
<path d="M10.7574 49.3151C13.5679 51.4753 16.8072 53.1041 20.3262 54.0526V39.7466L10.7574 49.3151Z" fill="#41479B"/>
<path d="M20.326 0.947353C16.8071 1.89589 13.5678 3.52473 10.7574 5.68477L20.326 15.2534V0.947353Z" fill="#41479B"/>
<path d="M34.674 54.0526C38.1929 53.1041 41.4322 51.4753 44.2426 49.3152L34.674 39.7466V54.0526Z" fill="#41479B"/>
<path d="M39.7466 34.6741L49.3152 44.2428C51.4753 41.4324 53.1042 38.193 54.0526 34.6741H39.7466Z" fill="#41479B"/>
<path d="M54.7672 23.9131H31.0871H31.087V0.232783C29.9128 0.0799219 28.7157 0 27.5 0C26.2841 0 25.0872 0.0799219 23.9131 0.232783V23.9129V23.913H0.232783C0.0799219 25.0872 0 26.2843 0 27.5C0 28.7159 0.0799219 29.9128 0.232783 31.0869H23.9129H23.913V54.7672C25.0872 54.9201 26.2841 55 27.5 55C28.7157 55 29.9128 54.9202 31.0869 54.7672V31.0871V31.087H54.7672C54.9201 29.9128 55 28.7159 55 27.5C55 26.2843 54.9201 25.0872 54.7672 23.9131Z" fill="#FF4B55"/>
<path d="M34.674 34.6741L46.9454 46.9455C47.5098 46.3813 48.0482 45.7915 48.5619 45.18L38.0558 34.674H34.674V34.6741Z" fill="#FF4B55"/>
<path d="M20.326 34.6741H20.3258L8.05449 46.9454C8.61867 47.5098 9.20853 48.0482 9.81997 48.5619L20.326 38.0556V34.6741Z" fill="#FF4B55"/>
<path d="M20.326 20.3263V20.326L8.0546 8.05449C7.49021 8.61867 6.95181 9.20852 6.43812 9.81997L16.9443 20.3261H20.326V20.3263Z" fill="#FF4B55"/>
<path d="M34.674 20.3263L46.9455 8.0546C46.3813 7.4902 45.7915 6.9518 45.18 6.43822L34.674 16.9444V20.3263Z" fill="#FF4B55"/>
</g>
<defs>
<clipPath id="clip0_431_12799">
<rect width="55" height="55" fill="white"/>
</clipPath>
</defs>
</svg>
