<?xml version="1.0" standalone="no"?>
<!DOCTYPE svg PUBLIC "-//W3C//DTD SVG 20010904//EN"
 "http://www.w3.org/TR/2001/REC-SVG-20010904/DTD/svg10.dtd">
<svg version="1.0" xmlns="http://www.w3.org/2000/svg"
 width="567.000000pt" height="567.000000pt" viewBox="0 0 567.000000 567.000000"
 preserveAspectRatio="xMidYMid meet">
<metadata>
Created by potrace 1.14, written by Peter Selinger 2001-2017
</metadata>
<g transform="translate(0.000000,567.000000) scale(0.100000,-0.100000)"
fill="#000000" stroke="none">
<path d="M2619 5596 c-2 -2 -35 -6 -74 -10 -117 -10 -215 -26 -421 -71 -132
-29 -440 -149 -594 -232 -130 -69 -379 -229 -410 -263 -3 -3 -43 -37 -90 -77
-420 -353 -721 -819 -875 -1354 -19 -66 -37 -130 -39 -142 -2 -12 -11 -58 -19
-102 -9 -44 -18 -107 -22 -140 -4 -33 -9 -71 -11 -85 -10 -46 -13 -444 -4
-525 9 -94 20 -180 26 -209 2 -12 6 -34 9 -51 3 -16 8 -42 11 -57 3 -15 6 -30
6 -33 0 -2 9 -37 19 -77 11 -40 22 -82 24 -92 3 -11 17 -56 31 -100 298 -905
1047 -1601 1964 -1826 119 -29 256 -54 370 -67 85 -10 497 -10 580 0 558 64
1046 269 1469 616 176 143 388 372 518 557 253 362 426 824 478 1274 14 124
14 542 0 620 -3 19 -13 76 -21 125 -8 50 -17 104 -20 120 -10 59 -64 252 -99
353 -194 557 -577 1052 -1066 1380 -358 239 -737 384 -1169 448 -101 14 -559
31 -571 20z m411 -82 c125 -9 123 -9 210 -23 878 -147 1613 -697 1999 -1496
494 -1022 285 -2251 -520 -3055 -401 -400 -914 -668 -1444 -755 -55 -9 -111
-18 -125 -21 -135 -22 -526 -22 -660 1 -14 2 -47 7 -75 10 -147 17 -494 114
-634 176 -356 159 -614 334 -866 585 -502 501 -784 1174 -788 1881 -1 117 10
311 18 335 2 7 6 36 9 63 17 169 108 499 183 665 14 30 34 74 44 98 31 71 128
241 192 337 188 281 402 505 667 696 419 303 908 479 1405 505 66 4 121 8 123
9 4 3 150 -3 262 -11z"/>
<path d="M2660 5257 c-3 -3 -41 -8 -86 -11 -45 -4 -90 -8 -100 -10 -10 -2 -39
-7 -64 -11 -213 -33 -523 -137 -708 -237 -129 -69 -333 -198 -362 -228 -3 -3
-41 -35 -85 -72 -102 -83 -261 -248 -346 -358 -281 -361 -446 -763 -503 -1226
-13 -105 -15 -469 -3 -524 3 -14 9 -52 12 -85 3 -33 10 -76 15 -95 5 -19 11
-48 13 -65 20 -128 101 -369 185 -547 66 -139 199 -355 274 -443 9 -11 33 -40
53 -65 278 -339 697 -620 1123 -756 252 -80 450 -109 737 -109 215 0 299 7
465 41 69 14 135 28 148 30 30 6 301 98 327 111 11 6 77 38 146 72 164 80 327
188 489 322 117 98 303 301 401 439 108 152 243 402 291 540 55 158 83 250 91
300 3 14 10 43 15 65 50 190 65 633 28 845 -31 180 -44 239 -85 372 -218 709
-768 1291 -1465 1552 -163 61 -365 113 -511 131 -27 4 -61 9 -75 11 -34 7
-414 16 -420 11z m325 -81 c116 -6 289 -35 427 -71 382 -99 736 -299 1030
-580 862 -826 964 -2165 238 -3115 -290 -380 -683 -658 -1140 -808 -116 -39
-284 -79 -365 -87 -33 -4 -63 -9 -66 -11 -9 -5 -211 -18 -289 -18 -76 0 -275
12 -307 18 -11 3 -43 7 -70 11 -82 11 -289 64 -395 101 -491 171 -913 501
-1201 941 -141 215 -259 489 -316 733 -50 217 -56 275 -56 545 0 211 6 303 25
390 5 22 12 60 15 84 9 64 71 270 112 375 39 100 126 279 169 347 211 337 440
575 742 773 333 217 736 351 1127 373 55 3 101 6 102 7 2 2 103 -2 218 -8z"/>
<path d="M2648 4914 c-2 -1 -30 -5 -63 -8 -33 -4 -71 -8 -85 -11 -14 -3 -38
-7 -55 -10 -74 -12 -95 -17 -182 -41 -312 -84 -622 -256 -858 -476 -75 -70
-90 -100 -57 -116 28 -14 36 -10 93 45 134 128 300 243 479 333 291 145 555
207 890 208 236 0 389 -22 605 -88 269 -82 561 -251 753 -435 70 -66 89 -77
115 -63 29 15 19 41 -35 94 -267 258 -631 451 -988 524 -172 35 -243 42 -427
45 -101 1 -184 1 -185 -1z"/>
<path d="M2650 4368 c-221 -19 -420 -117 -536 -263 -82 -104 -114 -191 -121
-335 -5 -87 -2 -118 15 -182 32 -113 95 -216 167 -268 19 -14 35 -28 35 -31 0
-3 -27 -27 -59 -52 -92 -71 -167 -178 -204 -289 -6 -16 -10 -16 -45 -4 -192
68 -386 235 -471 405 -48 96 -68 174 -76 295 -3 56 -14 75 -41 76 -28 0 -37
-30 -31 -113 7 -94 10 -111 33 -181 71 -216 239 -399 478 -519 l69 -34 -450 0
c-247 0 -455 -3 -461 -7 -15 -9 -16 -53 -1 -62 6 -3 218 -7 471 -7 l459 0 -48
-24 c-212 -107 -377 -262 -458 -431 -21 -45 -29 -48 -72 -31 -51 20 -128 19
-170 -2 -60 -30 -87 -85 -87 -180 0 -68 4 -85 37 -152 38 -77 150 -209 200
-236 23 -12 32 -11 84 10 142 57 257 151 301 247 30 66 29 161 -3 205 -29 39
-100 71 -172 75 l-62 4 16 32 c80 155 237 302 413 385 64 30 80 32 80 6 0 -32
44 -128 80 -177 83 -110 215 -193 428 -267 31 -11 156 -48 277 -82 330 -92
421 -142 419 -230 -3 -108 -109 -155 -286 -129 -175 25 -396 119 -543 230 -81
61 -91 65 -111 52 -25 -16 -314 -367 -314 -381 0 -35 200 -186 345 -259 145
-73 313 -130 432 -147 23 -3 57 -8 75 -11 47 -7 226 -6 284 1 277 36 505 187
604 400 43 93 60 185 56 300 -5 141 -44 247 -122 334 l-43 48 35 34 c72 68
124 153 172 281 6 16 14 14 73 -16 209 -105 360 -260 428 -435 30 -79 40 -127
45 -225 3 -56 14 -75 42 -76 28 0 37 30 31 113 -3 45 -8 92 -11 105 -3 12 -8
30 -10 40 -24 106 -110 247 -210 347 -91 90 -162 140 -286 202 l-85 42 345 0
c608 -1 588 -1 599 20 7 13 6 23 -3 36 -12 17 -42 18 -465 18 -248 0 -451 3
-451 6 1 3 24 17 53 30 158 74 317 218 406 369 30 51 56 92 59 92 2 0 28 -7
57 -15 29 -9 66 -14 82 -11 15 2 38 5 50 5 29 1 87 62 100 106 7 20 10 66 9
102 -5 98 -57 194 -162 301 -96 97 -88 96 -219 32 -170 -83 -267 -204 -267
-335 0 -56 29 -104 79 -132 40 -23 126 -42 161 -36 19 2 20 0 12 -23 -33 -87
-169 -239 -279 -314 -82 -55 -174 -101 -182 -92 -4 4 -14 31 -24 60 -37 113
-138 228 -272 308 -101 60 -220 108 -469 189 -322 105 -388 141 -401 218 -21
130 135 178 352 109 29 -9 144 -64 195 -93 39 -22 244 -175 259 -193 8 -9 23
-16 35 -16 20 0 50 30 218 225 15 17 47 53 72 80 25 28 46 58 46 68 0 42 -223
213 -390 297 -157 79 -355 142 -485 155 -111 10 -130 11 -215 3z m293 -93
c167 -35 373 -124 534 -231 46 -30 88 -60 95 -67 7 -7 27 -24 45 -38 l32 -27
-46 -53 c-25 -30 -48 -56 -52 -59 -3 -3 -31 -34 -61 -70 -94 -110 -72 -108
-191 -19 -126 95 -257 169 -364 205 -102 35 -244 42 -318 16 -91 -32 -145
-115 -133 -204 15 -111 103 -171 386 -263 260 -84 324 -106 416 -150 170 -79
274 -167 327 -277 95 -196 54 -401 -112 -562 l-40 -39 -48 31 c-56 36 -157 82
-230 106 l-52 17 34 30 c51 45 88 127 88 198 1 120 -84 201 -278 266 -22 8
-128 39 -236 69 -195 55 -253 75 -345 117 -226 106 -340 281 -328 502 12 195
122 352 308 442 92 43 153 62 236 72 25 3 47 7 48 8 10 9 217 -6 285 -20z
m1465 -510 c65 -76 102 -157 102 -222 0 -58 -19 -107 -45 -117 -29 -11 -84 -7
-121 9 -28 12 -35 19 -29 32 17 43 35 153 35 215 0 59 -2 67 -21 73 -33 11
-49 -14 -54 -87 -4 -68 -33 -197 -44 -199 -80 -14 -158 1 -196 39 -23 23 -26
32 -20 66 16 104 101 193 247 261 l51 24 26 -22 c15 -12 46 -44 69 -72z
m-1933 -609 c55 -20 107 -39 115 -42 9 -3 1 -11 -25 -23 -86 -38 -144 -115
-145 -188 l0 -32 -127 3 c-150 5 -262 22 -270 43 -9 23 54 138 108 197 27 30
73 70 102 89 l52 35 45 -23 c25 -12 90 -39 145 -59z m419 -127 c54 -17 123
-42 152 -56 51 -24 114 -74 114 -91 0 -5 -148 -9 -330 -9 l-330 0 0 33 c0 60
59 111 162 138 80 22 124 19 232 -15z m-430 -254 c46 -70 180 -128 476 -206
110 -30 272 -85 338 -115 123 -58 238 -157 282 -243 51 -102 66 -258 35 -375
-52 -197 -218 -357 -439 -425 -95 -29 -151 -36 -296 -35 -195 2 -369 47 -575
149 -128 63 -295 178 -295 203 0 5 17 29 39 53 21 24 74 88 118 141 l80 97 59
-45 c75 -57 274 -155 382 -188 222 -69 388 -67 476 6 96 79 104 211 18 294
-47 45 -180 100 -372 154 -421 117 -565 180 -678 300 -47 49 -87 125 -97 182
-6 34 -5 36 22 42 63 14 80 17 123 23 25 3 46 6 47 7 1 1 56 2 122 3 115 1
120 0 135 -22z m716 18 c0 -2 -7 -20 -16 -41 -26 -64 -95 -122 -143 -122 -33
0 -322 86 -383 114 -31 15 -62 33 -69 42 -11 13 22 15 299 13 172 -1 312 -4
312 -6z m-1908 -553 c47 -13 50 -18 37 -65 -31 -112 -40 -242 -18 -256 40 -25
59 -3 64 75 3 38 12 99 21 137 18 78 25 83 104 74 104 -12 141 -42 134 -112
-2 -25 -12 -59 -20 -76 -28 -54 -111 -124 -197 -167 l-82 -41 -65 68 c-79 83
-120 155 -127 227 -13 123 36 167 149 136z"/>
<path d="M1265 3968 c-49 -28 -67 -84 -46 -136 42 -101 201 -67 201 43 0 78
-88 131 -155 93z m75 -98 c-15 -28 -27 -32 -44 -14 -20 19 -20 19 0 38 23 23
59 3 44 -24z"/>
<path d="M1044 3716 c-88 -88 13 -220 125 -162 72 38 64 159 -12 186 -51 17
-77 12 -113 -24z m100 -61 c7 -19 -21 -46 -39 -39 -18 7 -20 51 -2 57 17 6 34
-2 41 -18z"/>
<path d="M1444 3716 c-88 -88 13 -220 125 -162 72 38 64 159 -12 186 -51 17
-77 12 -113 -24z m96 -71 c0 -13 -6 -25 -12 -28 -22 -7 -38 4 -38 28 0 13 6
25 13 28 21 7 37 -4 37 -28z"/>
<path d="M4064 2119 c-27 -14 -54 -60 -54 -94 0 -35 27 -81 57 -94 73 -33 153
16 153 94 0 78 -84 129 -156 94z m79 -89 c4 -15 -1 -23 -16 -29 -28 -11 -37
-5 -37 24 0 14 7 25 18 28 23 5 29 1 35 -23z"/>
<path d="M4458 2113 c-88 -55 -46 -193 58 -193 57 0 104 47 104 105 0 83 -90
132 -162 88z m85 -83 c4 -15 -1 -23 -16 -29 -28 -11 -37 -5 -37 24 0 14 7 25
18 28 23 5 29 1 35 -23z"/>
<path d="M4274 1890 c-32 -13 -64 -59 -64 -92 0 -63 44 -107 107 -108 33 0 48
6 72 31 45 44 44 98 -3 145 -35 35 -68 42 -112 24z m70 -85 c7 -19 -20 -46
-39 -39 -8 4 -15 17 -15 30 0 19 5 24 24 24 13 0 26 -7 30 -15z"/>
<path d="M1358 1422 c-9 -2 -20 -12 -24 -24 -7 -25 24 -60 151 -166 307 -258
711 -430 1102 -469 97 -10 378 -10 458 0 101 13 117 15 198 32 293 61 571 185
812 364 63 46 211 175 232 201 19 23 15 48 -8 60 -24 13 -24 13 -121 -76 -164
-152 -382 -287 -608 -377 -560 -223 -1213 -176 -1730 125 -124 72 -261 172
-349 254 -77 72 -91 81 -113 76z"/>
</g>
</svg>
