<svg width="57" height="57" viewBox="0 0 57 57" fill="none" xmlns="http://www.w3.org/2000/svg">
<g clip-path="url(#clip0_431_12746)">
<path d="M28.5 57C44.2401 57 57 44.2401 57 28.5C57 12.7599 44.2401 0 28.5 0C12.7599 0 0 12.7599 0 28.5C0 44.2401 12.7599 57 28.5 57Z" fill="#F0F0F0"/>
<path d="M28.5 57C44.24 57 57 44.24 57 28.5C57 25.0139 56.373 21.6744 55.2273 18.587H1.77268C0.627111 21.6744 0 25.0139 0 28.5C0 44.24 12.76 57 28.5 57Z" fill="#41479B"/>
<path d="M28.5 57C40.754 57 51.2005 49.2658 55.2273 38.413H1.77268C5.79953 49.2658 16.246 57 28.5 57Z" fill="#FF4B55"/>
<path d="M7.3697 16.1087V30.326C7.3697 38.4133 17.9348 40.8914 17.9348 40.8914C17.9348 40.8914 28.4999 38.4133 28.4999 30.326V16.1087H7.3697Z" fill="#F0F0F0"/>
<path d="M9.84797 16.1087V30.326C9.84797 31.2754 10.0588 32.172 10.4765 33.0127H25.3931C25.8108 32.1722 26.0216 31.2754 26.0216 30.326V16.1087H9.84797Z" fill="#FF4B55"/>
<path d="M22.8913 26.0217H19.174V23.5434H21.6523V21.0652H19.174V18.587H16.6958V21.0652H14.2176V23.5434H16.6958V26.0217H12.9783V28.5H16.6958V30.9783H19.174V28.5H22.8913V26.0217Z" fill="#F0F0F0"/>
<path d="M13.8571 36.4722C15.4541 37.4758 17.0949 38.0585 17.9349 38.3177C18.7748 38.0586 20.4156 37.4758 22.0126 36.4722C23.6231 35.46 24.752 34.3024 25.3931 33.0127C24.686 32.5125 23.8233 32.2175 22.8914 32.2175C22.5521 32.2175 22.2224 32.2577 21.9055 32.3315C21.2338 30.8054 19.7092 29.7392 17.935 29.7392C16.1607 29.7392 14.636 30.8054 13.9644 32.3315C13.6475 32.2577 13.3177 32.2175 12.9785 32.2175C12.0466 32.2175 11.1839 32.5125 10.4769 33.0127C11.1176 34.3023 12.2465 35.4599 13.8571 36.4722Z" fill="#41479B"/>
</g>
<defs>
<clipPath id="clip0_431_12746">
<rect width="57" height="57" fill="white"/>
</clipPath>
</defs>
</svg>
